<?xml version="1.0" encoding="UTF-8" standalone="no"?>
<!-- Created with Inkscape (http://www.inkscape.org/) -->

<svg
   xmlns:dc="http://purl.org/dc/elements/1.1/"
   xmlns:cc="http://creativecommons.org/ns#"
   xmlns:rdf="http://www.w3.org/1999/02/22-rdf-syntax-ns#"
   xmlns:svg="http://www.w3.org/2000/svg"
   xmlns="http://www.w3.org/2000/svg"
   xmlns:sodipodi="http://sodipodi.sourceforge.net/DTD/sodipodi-0.dtd"
   xmlns:inkscape="http://www.inkscape.org/namespaces/inkscape"
   width="46.925842mm"
   height="38.608158mm"
   viewBox="0 0 42.233257 34.747343"
   version="1.1"
   id="svg2030"
   inkscape:version="0.92.3 (unknown)"
   sodipodi:docname="logo.svg"
   inkscape:export-filename="/home/matthias/bitmap.png"
   inkscape:export-xdpi="649.53552"
   inkscape:export-ydpi="649.53552">
  <defs
     id="defs2024" />
  <sodipodi:namedview
     id="base"
     pagecolor="#ffffff"
     bordercolor="#666666"
     borderopacity="1.0"
     inkscape:pageopacity="0.0"
     inkscape:pageshadow="2"
     inkscape:zoom="2.0000001"
     inkscape:cx="125.22323"
     inkscape:cy="158.18014"
     inkscape:document-units="mm"
     inkscape:current-layer="g1059"
     showgrid="false"
     inkscape:window-width="1920"
     inkscape:window-height="1025"
     inkscape:window-x="0"
     inkscape:window-y="26"
     inkscape:window-maximized="1"
     fit-margin-top="0.5"
     fit-margin-left="0.5"
     fit-margin-right="0.5"
     fit-margin-bottom="0.5"
     scale-x="0.9"
     inkscape:measure-start="0,0"
     inkscape:measure-end="0,0"
     inkscape:snap-global="false"
     showguides="false" />
  <metadata
     id="metadata2027">
    <rdf:RDF>
      <cc:Work
         rdf:about="">
        <dc:format>image/svg+xml</dc:format>
        <dc:type
           rdf:resource="http://purl.org/dc/dcmitype/StillImage" />
        <dc:title></dc:title>
      </cc:Work>
    </rdf:RDF>
  </metadata>
  <g
     inkscape:groupmode="layer"
     id="layer4"
     inkscape:label="box"
     style="display:inline"
     sodipodi:insensitive="true">
    <rect
       transform="translate(-51.793241,-109.78535)"
       style="display:inline;fill:#d2d2d2;fill-opacity:1;stroke:none;stroke-width:0.18000001;stroke-linecap:square;stroke-linejoin:bevel;stroke-miterlimit:4;stroke-dasharray:none;stroke-dashoffset:0;stroke-opacity:1"
       id="rect1247-9-8-9"
       width="41.198257"
       height="33.712341"
       x="52.310741"
       y="110.30285"
       rx="0.89999998"
       ry="0.89999998" />
  </g>
  <g
     inkscape:groupmode="layer"
     id="layer2"
     inkscape:label="grass"
     style="display:none"
     sodipodi:insensitive="true">
    <path
       style="fill:#ffffff;stroke:none;stroke-width:0.238125px;stroke-linecap:butt;stroke-linejoin:miter;stroke-opacity:1"
       d="M 0.60800276,32.562863 C 4.7874199,25.459573 5.8010163,12.838739 3.3008617,0.61072684 l 0.7111858,-0.001196 C 6.744531,13.407812 5.2198638,20.019347 4.4197303,26.264445 7.117349,20.788411 9.5718006,15.211482 11.546044,9.6707789 12.263781,7.6564535 13.022315,7.547548 12.207536,9.9714573 10.409581,15.320244 8.6550841,19.266797 5.5838453,26.261654 13.431707,15.867515 16.080924,9.3777073 20.299027,0.60840141 l 0.95921,-0.002857 C 17.225051,9.7870323 14.718674,15.802766 5.437808,28.398737 c 4.746699,-4.110332 9.505409,-7.556524 15.414227,-9.662509 1.325502,-0.472427 1.483826,-0.114852 0.210474,0.405915 -6.226464,2.54646 -10.50225,5.704277 -16.0390752,10.744157 3.6996984,-3.011694 7.8461942,-4.437428 11.4752272,-5.089181 2.504817,-0.44985 2.547284,0.06837 0.127567,0.680358 -3.667841,0.927666 -7.2996839,2.123377 -11.968833,6.313411 15.100764,-8.189068 22.707062,-7.746934 36.968441,-5.273328 l -0.0023,0.511127 C 24.184128,24.269105 18.890816,26.186223 9.0905589,30.84696 15.928472,30.175041 20.237846,30.060235 28.265781,34.135671 l -1.028423,-0.0026 C 18.423927,29.84585 9.2432367,30.304238 2.9149891,34.155583 H 1.5140217 C 0.92177939,34.149709 0.6960651,33.847322 0.61381094,33.381459 Z"
       id="path824"
       inkscape:connector-curvature="0"
       sodipodi:nodetypes="ccccssccccsscsscccccccccc" />
  </g>
  <g
     inkscape:groupmode="layer"
     id="layer3"
     inkscape:label="grass2"
     style="display:none"
     sodipodi:insensitive="true">
    <path
       id="rect965"
       style="fill:#ffffff;fill-opacity:1;stroke:none;stroke-width:0.0635;stroke-linecap:round;stroke-linejoin:bevel;stroke-miterlimit:4;stroke-dasharray:none;stroke-dashoffset:0;stroke-opacity:1"
       d="m 1.5314248,34.136964 c -0.4986003,0 -0.90180259,-0.401404 -0.90000055,-0.900001 l 0.00303,-0.838377 C 1.1479036,31.812734 1.4235113,30.910129 1.6125011,30.253859 4.2336454,21.151904 4.9104138,11.787288 3.3271283,0.64263614 l 0.7730866,-0.002979 C 5.9256878,11.670665 5.4247186,20.917867 3.1665237,29.861491 6.7001361,23.083177 9.1495478,17.325299 11.965782,8.4345299 12.38246,7.1927825 12.938875,7.2609023 12.497247,8.566498 10.924064,13.69619 8.5467,20.000041 5.8006997,26.231021 12.089433,17.126886 16.51845,9.3837718 20.796834,0.63593608 l 1.113337,-0.00329 C 17.601417,9.9344771 12.615085,18.102966 5.9265983,28.04425 10.26294,23.929281 14.853219,20.922501 20.895468,18.495311 c 1.092096,-0.422252 1.372187,0.267406 0.325401,0.686508 -6.029431,2.422041 -10.613046,5.421216 -14.8848482,9.726269 3.9162042,-2.34074 7.7799542,-3.433789 11.9400732,-4.161995 1.513216,-0.32616 1.872944,0.273498 0.238694,0.65588 -4.430365,1.120692 -7.823577,1.914232 -12.758251,5.503333 11.482019,-6.041992 23.474237,-6.6728 35.833483,-4.142592 l 6.23e-4,0.718319 c -10.907916,-2.099975 -21.30249,-1.489589 -31.321823,2.989725 6.229195,-0.82295 12.043553,0.427316 18.477398,3.686722 L 28.09875,34.15203 C 19.926145,30.011765 12.23799,29.855578 3.9543976,33.099184 3.221478,33.38318 2.6476867,33.749603 2.3408704,34.137776 Z"
       inkscape:connector-curvature="0"
       sodipodi:nodetypes="sscsccccccccccccccccccccccs" />
  </g>
  <g
     inkscape:groupmode="layer"
     id="layer6"
     inkscape:label="grass help"
     style="display:none"
     sodipodi:insensitive="true">
    <path
       style="display:inline;fill:none;fill-opacity:1;stroke:#000000;stroke-width:0.0635;stroke-linecap:round;stroke-linejoin:bevel;stroke-miterlimit:4;stroke-dasharray:none;stroke-dashoffset:0;stroke-opacity:1"
       d="M 3.7148464,0.52252666 C 4.3115047,4.3843875 4.6210785,8.3410423 4.6210785,12.370002 c 0,7.583451 -1.0967611,14.910739 -3.1403164,21.831898"
       id="path938"
       inkscape:connector-curvature="0"
       sodipodi:nodetypes="csc" />
    <path
       style="display:inline;fill:none;fill-opacity:1;stroke:#000000;stroke-width:0.0635;stroke-linecap:round;stroke-linejoin:bevel;stroke-miterlimit:4;stroke-dasharray:none;stroke-dashoffset:0;stroke-opacity:1"
       d="M 14.265456,0.544174 C 11.276496,12.403212 6.7974192,23.669737 1.0389759,34.132998"
       id="path938-4"
       inkscape:connector-curvature="0"
       sodipodi:nodetypes="cc" />
    <path
       style="display:inline;fill:none;fill-opacity:1;stroke:#000000;stroke-width:0.0635;stroke-linecap:round;stroke-linejoin:bevel;stroke-miterlimit:4;stroke-dasharray:none;stroke-dashoffset:0;stroke-opacity:1"
       d="M 21.577377,0.68277251 C 16.252012,11.691864 9.4620673,22.608492 2.0665787,32.201547"
       id="path938-4-2"
       inkscape:connector-curvature="0"
       sodipodi:nodetypes="cc" />
    <path
       style="display:inline;fill:none;fill-opacity:1;stroke:#000000;stroke-width:0.0635;stroke-linecap:round;stroke-linejoin:bevel;stroke-miterlimit:4;stroke-dasharray:none;stroke-dashoffset:0;stroke-opacity:1"
       d="M 0.71468604,33.910359 C 9.3771932,22.422185 23.139204,14.995628 38.63578,14.995628 c 1.047092,0 2.086265,0.03391 3.116481,0.100682"
       id="path938-4-2-0"
       inkscape:connector-curvature="0"
       sodipodi:nodetypes="csc" />
    <path
       style="display:inline;fill:none;fill-opacity:1;stroke:#000000;stroke-width:0.0635;stroke-linecap:round;stroke-linejoin:bevel;stroke-miterlimit:4;stroke-dasharray:none;stroke-dashoffset:0;stroke-opacity:1"
       d="M 0.49882537,33.519071 C 6.8162794,27.755136 15.22095,24.240055 24.446611,24.240055 c 6.257685,0 12.137649,1.617214 17.244744,4.456496"
       id="path938-4-2-0-2"
       inkscape:connector-curvature="0"
       sodipodi:nodetypes="csc" />
    <path
       style="display:inline;fill:none;fill-opacity:1;stroke:#000000;stroke-width:0.0635;stroke-linecap:round;stroke-linejoin:bevel;stroke-miterlimit:4;stroke-dasharray:none;stroke-dashoffset:0;stroke-opacity:1"
       d="M 1.6768218,34.196104 C 9.6139665,28.678404 19.257655,25.444 29.656778,25.444 c 4.141619,0 8.163414,0.513028 12.005302,1.479001"
       id="path938-4-2-0-5"
       inkscape:connector-curvature="0"
       sodipodi:nodetypes="csc" />
    <path
       style="display:inline;fill:none;fill-opacity:1;stroke:#000000;stroke-width:0.0635;stroke-linecap:round;stroke-linejoin:bevel;stroke-miterlimit:4;stroke-dasharray:none;stroke-dashoffset:0;stroke-opacity:1"
       d="m 1.7155572,34.236937 c 3.9002532,-2.24819 8.4250308,-3.534348 13.2502058,-3.534348 4.801757,0 9.306025,1.273704 13.193373,3.501682"
       id="path938-4-2-0-2-4"
       inkscape:connector-curvature="0"
       sodipodi:nodetypes="csc" />
  </g>
  <g
     sodipodi:insensitive="true"
     style="display:none"
     inkscape:label="grass help copy"
     id="g962"
     inkscape:groupmode="layer">
    <circle
       r="76.965744"
       cy="12.370002"
       cx="-72.344666"
       id="circle948"
       style="display:inline;fill:none;fill-opacity:1;stroke:#000000;stroke-width:0.0635;stroke-linecap:round;stroke-linejoin:bevel;stroke-miterlimit:4;stroke-dasharray:none;stroke-dashoffset:0;stroke-opacity:1" />
    <circle
       r="142.15614"
       cy="-34.308907"
       cx="-123.58687"
       id="circle950"
       style="display:inline;fill:none;fill-opacity:1;stroke:#000000;stroke-width:0.0635;stroke-linecap:round;stroke-linejoin:bevel;stroke-miterlimit:4;stroke-dasharray:none;stroke-dashoffset:0;stroke-opacity:1" />
    <circle
       r="176.89264"
       cy="-76.248672"
       cx="-137.75529"
       id="circle952"
       style="display:inline;fill:none;fill-opacity:1;stroke:#000000;stroke-width:0.0635;stroke-linecap:round;stroke-linejoin:bevel;stroke-miterlimit:4;stroke-dasharray:none;stroke-dashoffset:0;stroke-opacity:1" />
    <circle
       r="47.463505"
       cy="62.459133"
       cx="38.63578"
       id="circle954"
       style="display:inline;fill:none;fill-opacity:1;stroke:#000000;stroke-width:0.0635;stroke-linecap:round;stroke-linejoin:bevel;stroke-miterlimit:4;stroke-dasharray:none;stroke-dashoffset:0;stroke-opacity:1" />
    <circle
       r="35.541481"
       cy="59.781536"
       cx="24.446611"
       id="circle956"
       style="display:inline;fill:none;fill-opacity:1;stroke:#000000;stroke-width:0.0635;stroke-linecap:round;stroke-linejoin:bevel;stroke-miterlimit:4;stroke-dasharray:none;stroke-dashoffset:0;stroke-opacity:1" />
    <circle
       r="49.07666"
       cy="74.52066"
       cx="29.656778"
       id="circle958"
       style="display:inline;fill:none;fill-opacity:1;stroke:#000000;stroke-width:0.0635;stroke-linecap:round;stroke-linejoin:bevel;stroke-miterlimit:4;stroke-dasharray:none;stroke-dashoffset:0;stroke-opacity:1" />
    <circle
       r="26.570986"
       cy="57.273575"
       cx="14.965763"
       id="circle960"
       style="display:inline;fill:none;fill-opacity:1;stroke:#000000;stroke-width:0.0635;stroke-linecap:round;stroke-linejoin:bevel;stroke-miterlimit:4;stroke-dasharray:none;stroke-dashoffset:0;stroke-opacity:1" />
  </g>
  <g
     style="display:inline"
     inkscape:label="grass3"
     id="g983"
     inkscape:groupmode="layer"
     sodipodi:insensitive="true">
    <path
       style="color:#000000;font-style:normal;font-variant:normal;font-weight:normal;font-stretch:normal;font-size:medium;line-height:normal;font-family:sans-serif;font-variant-ligatures:normal;font-variant-position:normal;font-variant-caps:normal;font-variant-numeric:normal;font-variant-alternates:normal;font-feature-settings:normal;text-indent:0;text-align:start;text-decoration:none;text-decoration-line:none;text-decoration-style:solid;text-decoration-color:#000000;letter-spacing:normal;word-spacing:normal;text-transform:none;writing-mode:lr-tb;direction:ltr;text-orientation:mixed;dominant-baseline:auto;baseline-shift:baseline;text-anchor:start;white-space:normal;shape-padding:0;clip-rule:nonzero;display:inline;overflow:visible;visibility:visible;opacity:1;isolation:auto;mix-blend-mode:normal;color-interpolation:sRGB;color-interpolation-filters:linearRGB;solid-color:#000000;solid-opacity:1;vector-effect:none;fill:#ffffff;fill-opacity:1;fill-rule:nonzero;stroke:#ffffff;stroke-width:1;stroke-linecap:square;stroke-linejoin:bevel;stroke-miterlimit:4;stroke-dasharray:none;stroke-dashoffset:0;stroke-opacity:1;color-rendering:auto;image-rendering:auto;shape-rendering:auto;text-rendering:auto;enable-background:accumulate"
       d="M 88.716797,2.546875 C 68.60625,44.035103 44.930213,82.940516 17.800781,119.56055 31.495765,91.729137 43.100067,62.682899 52.386719,32.619141 c 0.212593,-0.654819 -0.323945,-1.309895 -1.007813,-1.230469 -0.376808,0.04427 -0.690603,0.309615 -0.796875,0.673828 -10.159558,32.889623 -23.100815,64.557241 -38.529297,94.74219 5.672947,-24.03296 8.673828,-49.099757 8.673828,-74.861331 0,-16.81661 -1.273675,-33.252236 -3.740234,-49.380859 -0.543399,-0.00349 -2.211323,-0.00925 -2.640625,0.00391 2.446414,15.996898 3.740235,32.694505 3.740235,49.376953 0,26.987128 -3.331831,53.195277 -9.5879415,78.242347 -0.6580682,2.48236 -3.6947871,7.17502 -5.8925277,7.53905 v 2.28305 c 0,1.83298 1.4756215,3.3086 3.3085937,3.3086 h 4.9346645 c 0.923758,-1.3916 2.32156,-1.88695 3.684742,-2.55765 14.602163,-7.0868 30.984465,-11.06735 48.310281,-11.06735 19.359714,0 37.61695,4.85516 53.39258,13.68554 0.79407,-4e-5 1.60383,0.005 3.1582,-0.002 -0.44706,-0.25562 -1.50586,-0.81445 -1.50586,-0.81445 -16.26527,-9.15816 -35.051862,-14.37891 -55.04492,-14.37891 -14.343052,0 -28.051948,2.69981 -40.664062,7.59961 30.10706,-17.43256 65.064563,-27.86463 102.361332,-27.41602 17.68152,0.21267 34.54828,3.1135 50.23828,6.21289 l 0.0156,-3.08398 c 0,0 -32.84918,-6.1543 -50.2539,-6.1543 -40.537025,0 -78.367699,11.6266 -110.332574,31.72064 -2.02888,1.17137 -5.1749134,2.97057 -5.8525872,2.2929 -0.7867995,-0.96643 1.3170301,-4.03597 3.7789072,-6.01354 19.361547,-14.913 42.49543,-25.16388 67.736328,-29.05078 0.959795,-0.10414 0.867556,-1.52835 -0.09766,-1.50781 -0.04399,0.001 -0.08778,0.007 -0.13086,0.0156 -23.220909,3.57584 -44.671233,12.49442 -63.091797,25.43359 19.686317,-21.38265 44.016752,-38.423591 71.392578,-49.515622 1.398179,-0.53207 0.977471,-2.611796 -0.517578,-2.558594 -0.163484,0.0062 -0.324409,0.04258 -0.474609,0.107422 C 64.022164,85.554044 43.201646,98.960635 25.404297,115.56445 50.86597,80.403556 73.342332,42.953549 92.429688,3.5761719 l 0.478515,-0.9921875 c -1.308472,0.00696 -2.658094,-0.03934 -4.191406,-0.037109 z"
       transform="scale(0.238125)"
       id="circle973"
       inkscape:connector-curvature="0"
       sodipodi:nodetypes="ccccccsccsccssccscccscsccscccccccccccccc" />
  </g>
  <g
     inkscape:label="ring"
     inkscape:groupmode="layer"
     id="layer1"
     transform="translate(-51.793241,-109.78535)"
     style="display:none"
     sodipodi:insensitive="true">
    <path
       style="fill:none;fill-opacity:1;stroke:#ffffff;stroke-width:0.648;stroke-linecap:round;stroke-linejoin:bevel;stroke-miterlimit:4;stroke-dasharray:0.64800001, 1.94400003;stroke-dashoffset:0;stroke-opacity:1"
       d="m 52.705886,113.29337 c 16.665532,0 30.175617,13.65749 30.175618,30.50484"
       id="path1969"
       inkscape:connector-curvature="0"
       sodipodi:nodetypes="cc" />
    <path
       style="fill:none;fill-opacity:1;stroke:#ffffff;stroke-width:0.51300001;stroke-linecap:round;stroke-linejoin:bevel;stroke-miterlimit:4;stroke-dasharray:0.51300001, 1.53900002;stroke-dashoffset:0;stroke-opacity:1"
       d="m 52.620397,123.74573 c 11.072918,0 20.049292,9.01445 20.049291,20.13434"
       id="path1971"
       inkscape:connector-curvature="0"
       sodipodi:nodetypes="cc" />
    <path
       style="fill:none;fill-opacity:1;stroke:#ffffff;stroke-width:0.405;stroke-linecap:round;stroke-linejoin:bevel;stroke-miterlimit:4;stroke-dasharray:0.40500001, 1.21500002;stroke-dashoffset:0;stroke-opacity:1"
       d="m 52.561856,133.96555 c 5.482645,0 9.927207,4.44456 9.927206,9.92721"
       id="path1971-7"
       inkscape:connector-curvature="0"
       sodipodi:nodetypes="cc" />
  </g>
  <g
     style="display:inline"
     transform="translate(-51.793241,-109.78535)"
     id="g857"
     inkscape:groupmode="layer"
     inkscape:label="ring copy"
     sodipodi:insensitive="true">
    <path
       sodipodi:nodetypes="cc"
       inkscape:connector-curvature="0"
       id="path851"
       d="m 52.705886,113.29337 c 16.665532,0 30.175617,13.65749 30.175618,30.50484"
       style="fill:none;fill-opacity:1;stroke:#ffffff;stroke-width:0.90000004;stroke-linecap:round;stroke-linejoin:bevel;stroke-miterlimit:4;stroke-dasharray:0.90000001, 2.70000004;stroke-dashoffset:0;stroke-opacity:1" />
  </g>
  <g
     style="display:inline"
     inkscape:label="text copy"
     id="g1059"
     inkscape:groupmode="layer">
    <path
       d="m 31.342384,23.293274 h -1.935311 l -3.559858,-4.5575 v 4.5575 h -1.935311 v -7.44135 h 1.935311 l 3.559858,4.55203 v -4.55203 h 1.935311 z"
       style="font-style:normal;font-variant:normal;font-weight:normal;font-stretch:normal;font-size:4.93888903px;line-height:1.25;font-family:Aharoni;-inkscape-font-specification:Aharoni;letter-spacing:0px;word-spacing:0px;display:inline;fill:#712dc3;fill-opacity:1;stroke:none;stroke-width:0.59811342"
       id="path1051-2"
       inkscape:connector-curvature="0" />
    <path
       d="m 40.326544,23.293274 h -1.935311 l -3.559863,-4.5575 v 4.5575 h -1.93531 v -7.44135 h 1.93531 l 3.559863,4.55203 v -4.55203 h 1.935311 z"
       style="font-style:normal;font-variant:normal;font-weight:normal;font-stretch:normal;font-size:4.93888903px;line-height:1.25;font-family:Aharoni;-inkscape-font-specification:Aharoni;letter-spacing:0px;word-spacing:0px;display:inline;fill:#712dc3;fill-opacity:1;stroke:none;stroke-width:0.59811342"
       id="path1053-4"
       inkscape:connector-curvature="0" />
  </g>
  <g
     inkscape:groupmode="layer"
     id="layer5"
     inkscape:label="text"
     style="display:inline"
     sodipodi:insensitive="true">
    <path
       transform="translate(-51.793241,-109.78535)"
       inkscape:connector-curvature="0"
       id="path1307-2-8"
       style="font-style:normal;font-variant:normal;font-weight:normal;font-stretch:normal;font-size:4.93888903px;line-height:1.25;font-family:Aharoni;-inkscape-font-specification:Aharoni;letter-spacing:0px;word-spacing:0px;display:inline;fill:#712dc3;fill-opacity:1;stroke:none;stroke-width:0.59811342"
       d="m 61.099281,124.82445 -3.172801,7.44135 h -1.504623 l -3.129194,-7.44135 h 2.104289 l 1.793572,4.52479 1.809916,-4.52479 z" />
    <path
       transform="translate(-51.793241,-109.78535)"
       inkscape:connector-curvature="0"
       id="path1309-3-7"
       style="font-style:normal;font-variant:normal;font-weight:normal;font-stretch:normal;font-size:4.93888903px;line-height:1.25;font-family:Aharoni;-inkscape-font-specification:Aharoni;letter-spacing:0px;word-spacing:0px;display:inline;fill:#712dc3;fill-opacity:1;stroke:none;stroke-width:0.59811342"
       d="m 66.289181,126.44355 h -1.602779 v 5.82225 h -1.935288 v -5.82225 h -1.575493 v -1.6191 h 5.11356 z" />
    <path
       transform="translate(-51.793241,-109.78535)"
       inkscape:connector-curvature="0"
       id="path1313-6-2"
       style="font-style:normal;font-variant:normal;font-weight:normal;font-stretch:normal;font-size:4.93888903px;line-height:1.25;font-family:Aharoni;-inkscape-font-specification:Aharoni;letter-spacing:0px;word-spacing:0px;display:inline;fill:#ffffff;fill-opacity:1;stroke:none;stroke-width:0.59811342"
       d="m 82.502106,132.2658 h -1.935311 l -3.559858,-4.5575 v 4.5575 h -1.935311 v -7.44135 h 1.935311 l 3.559858,4.55203 v -4.55203 h 1.935311 z" />
    <path
       transform="translate(-51.793241,-109.78535)"
       inkscape:connector-curvature="0"
       id="path1315-3-4"
       style="font-style:normal;font-variant:normal;font-weight:normal;font-stretch:normal;font-size:4.93888903px;line-height:1.25;font-family:Aharoni;-inkscape-font-specification:Aharoni;letter-spacing:0px;word-spacing:0px;display:inline;fill:#ffffff;fill-opacity:1;stroke:none;stroke-width:0.59811342"
       d="m 91.486266,132.2658 h -1.935311 l -3.559863,-4.5575 v 4.5575 h -1.93531 v -7.44135 h 1.93531 l 3.559863,4.55203 v -4.55203 h 1.935311 z" />
    <g
       aria-label="X"
       transform="translate(-48.240028,-109.71399)"
       style="font-style:normal;font-variant:normal;font-weight:normal;font-stretch:normal;font-size:11.23537254px;line-height:1.25;font-family:'Times New Roman';-inkscape-font-specification:'Times New Roman, Normal';font-variant-ligatures:normal;font-variant-caps:normal;font-variant-numeric:normal;font-feature-settings:normal;text-align:start;letter-spacing:0px;word-spacing:0px;writing-mode:lr-tb;text-anchor:start;display:inline;fill:#712dc3;fill-opacity:1;stroke:none;stroke-width:0.93627983"
       id="text1325-6-5-9">
      <path
         style="font-style:normal;font-variant:normal;font-weight:bold;font-stretch:normal;font-size:9.44899559px;line-height:1.25;font-family:'Times New Roman';-inkscape-font-specification:'Times New Roman, Bold';font-variant-ligatures:normal;font-variant-caps:normal;font-variant-numeric:normal;font-feature-settings:normal;text-align:start;letter-spacing:0px;word-spacing:0px;writing-mode:lr-tb;text-anchor:start;display:inline;fill:#722dc3;fill-opacity:1;stroke:none;stroke-width:0.21015626"
         d="m 63.179803,124.83916 v 0.20257 c 0.155087,0.0255 0.276132,0.0639 0.36379,0.11509 0.08767,0.0511 0.177306,0.13681 0.268336,0.25721 0.04045,0.0511 0.20396,0.30439 0.490534,0.76044 l 1.6079,2.66933 -1.434433,1.90034 c -0.402978,0.53387 -0.719651,0.88271 -0.945537,1.05052 -0.171945,0.12769 -0.4079,0.21509 -0.70796,0.26251 v 0.20258 h 2.84504 v -0.20258 c -0.219145,0 -0.364051,-0.0103 -0.434853,-0.0324 -0.158457,-0.0401 -0.278102,-0.10603 -0.359017,-0.19727 -0.08091,-0.0913 -0.121439,-0.18957 -0.121439,-0.29539 0,-0.14957 0.154493,-0.43598 0.47038,-0.8538 l 1.046827,-1.38462 1.001219,1.60365 c 0.188802,0.29916 0.307044,0.50358 0.354246,0.61304 0.02361,0.0511 0.03552,0.10935 0.03552,0.175 0,0.0949 -0.03912,0.17507 -0.116668,0.24076 -0.07756,0.0657 -0.249113,0.10912 -0.51546,0.13098 v 0.20259 h 2.425506 L 64.7637,124.83915 Z m 2.19595,0 4.690034,7.42059 h 0.974705 v -0.20258 c -0.182058,-0.0219 -0.340297,-0.0857 -0.475155,-0.19143 -0.131487,-0.10946 -0.35411,-0.41556 -0.667656,-0.91903 l -1.775844,-2.84817 1.415542,-1.88588 c 0.350632,-0.45605 0.569923,-0.72752 0.65758,-0.81508 0.138231,-0.135 0.267874,-0.22621 0.389247,-0.27365 0.121372,-0.0511 0.281542,-0.0785 0.480456,-0.0822 v -0.20256 h -2.754721 v 0.20256 c 0.205658,0 0.357232,0.0237 0.455005,0.0711 0.09777,0.0474 0.172155,0.11288 0.222728,0.19673 0.05395,0.0839 0.0806,0.17514 0.0806,0.27364 0,0.19701 -0.185432,0.5421 -0.55629,1.03464 l -0.723339,0.95772 -0.849552,-1.40107 -0.348942,-0.56902 c -0.02361,-0.0584 -0.03499,-0.12762 -0.03499,-0.20788 0,-0.10216 0.0386,-0.18622 0.116136,-0.25189 0.07756,-0.0693 0.213853,-0.10399 0.409399,-0.10399 h 0.172348 v -0.20258 z"
         id="text920-2-5"
         inkscape:connector-curvature="0"
         sodipodi:nodetypes="ccccccscccccccsscccsccccccccccccccccccccccsccccscsccc" />
    </g>
  </g>
  <g
     inkscape:groupmode="layer"
     id="layer8"
     inkscape:label="x"
     style="display:none"
     sodipodi:insensitive="true">
    <g
       aria-label="X"
       transform="translate(-32.738819,-119.63866)"
       style="font-style:normal;font-variant:normal;font-weight:normal;font-stretch:normal;font-size:11.23537254px;line-height:1.25;font-family:'Times New Roman';-inkscape-font-specification:'Times New Roman, Normal';font-variant-ligatures:normal;font-variant-caps:normal;font-variant-numeric:normal;font-feature-settings:normal;text-align:start;letter-spacing:0px;word-spacing:0px;writing-mode:lr-tb;text-anchor:start;display:inline;fill:#712dc3;fill-opacity:1;stroke:none;stroke-width:0.93627983"
       id="text1325-6-5">
      <path
         style="font-style:normal;font-variant:normal;font-weight:bold;font-stretch:normal;font-size:9.44899559px;line-height:1.25;font-family:'Times New Roman';-inkscape-font-specification:'Times New Roman, Bold';font-variant-ligatures:normal;font-variant-caps:normal;font-variant-numeric:normal;font-feature-settings:normal;text-align:start;letter-spacing:0px;word-spacing:0px;writing-mode:lr-tb;text-anchor:start;display:inline;fill:#722dc3;fill-opacity:1;stroke:none;stroke-width:0.21015626"
         d="m 63.744912,124.83916 v 0.20257 c 0.155087,0.0255 0.276132,0.0639 0.36379,0.11509 0.08767,0.0511 0.177306,0.13681 0.268336,0.25721 0.04045,0.0511 0.20396,0.30439 0.490534,0.76044 l 1.744709,2.77457 -1.360767,1.7951 c -0.404574,0.53266 -0.719651,0.88271 -0.945537,1.05052 -0.171945,0.12769 -0.4079,0.21509 -0.70796,0.26251 v 0.20258 h 2.634565 v -0.20258 c -0.219145,0 -0.364051,-0.0103 -0.434853,-0.0324 -0.158457,-0.0401 -0.278102,-0.10603 -0.359017,-0.19727 -0.08091,-0.0913 -0.121439,-0.18957 -0.121439,-0.29539 0,-0.14957 0.156836,-0.43422 0.47038,-0.8538 l 1.046827,-1.38462 1.001219,1.60365 c 0.188802,0.29916 0.307044,0.50358 0.354246,0.61304 0.02361,0.0511 0.03552,0.10935 0.03552,0.175 0,0.0949 -0.03912,0.17507 -0.116668,0.24076 -0.07756,0.0657 -0.249113,0.10912 -0.51546,0.13098 v 0.20259 h 1.785545 l -4.690034,-7.42056 z m 1.526223,0 4.690034,7.42059 h 0.974705 v -0.20258 c -0.182058,-0.0219 -0.340297,-0.0857 -0.475155,-0.19143 -0.131487,-0.10946 -0.35411,-0.41556 -0.667656,-0.91903 l -1.891605,-3.0376 1.299781,-1.69645 c 0.350632,-0.45605 0.569923,-0.72752 0.65758,-0.81508 0.138231,-0.135 0.267874,-0.22621 0.389247,-0.27365 0.121372,-0.0511 0.281542,-0.0785 0.480456,-0.0822 v -0.20256 h -2.523199 v 0.20256 c 0.205658,0 0.357232,0.0237 0.455005,0.0711 0.09777,0.0474 0.172155,0.11288 0.222728,0.19673 0.05395,0.0839 0.0806,0.17514 0.0806,0.27364 0,0.19701 -0.185432,0.5421 -0.55629,1.03464 l -0.723339,0.95772 -0.849552,-1.40107 -0.348942,-0.56902 c -0.02361,-0.0584 -0.03499,-0.12762 -0.03499,-0.20788 0,-0.10216 0.0386,-0.18622 0.116136,-0.25189 0.07756,-0.0693 0.213853,-0.10399 0.409399,-0.10399 h 0.172348 v -0.20258 z"
         id="text920-2"
         inkscape:connector-curvature="0" />
    </g>
    <text
       xml:space="preserve"
       style="font-style:normal;font-weight:normal;font-size:11.29811573px;line-height:1.25;font-family:sans-serif;letter-spacing:0px;word-spacing:0px;display:inline;fill:#712dc3;fill-opacity:1;stroke:none;stroke-width:0.9415096"
       x="21.496172"
       y="12.876637"
       id="text861"><tspan
         sodipodi:role="line"
         id="tspan859"
         x="21.496172"
         y="12.876637"
         style="font-style:normal;font-variant:normal;font-weight:bold;font-stretch:normal;font-size:11.29811573px;font-family:Aharoni;-inkscape-font-specification:'Aharoni, Bold';font-variant-ligatures:normal;font-variant-caps:normal;font-variant-numeric:normal;font-feature-settings:normal;text-align:start;writing-mode:lr-tb;text-anchor:start;fill:#712dc3;fill-opacity:1;stroke-width:0.9415096">X</tspan></text>
  </g>
  <g
     inkscape:groupmode="layer"
     id="layer7"
     inkscape:label="box outline"
     sodipodi:insensitive="true"
     style="display:inline">
    <rect
       style="display:inline;fill:none;fill-opacity:1;stroke:#969696;stroke-width:0.27000001;stroke-linecap:square;stroke-linejoin:bevel;stroke-miterlimit:4;stroke-dasharray:none;stroke-dashoffset:0;stroke-opacity:1"
       id="rect1247-9-8-9-2"
       width="41.198257"
       height="33.712341"
       x="0.5175004"
       y="0.51749879"
       rx="0.89999998"
       ry="0.89999998" />
  </g>
</svg>
